<?xml version="1.0" encoding="iso-8859-1"?>
<!-- Generator: Adobe Illustrator 18.0.0, SVG Export Plug-In . SVG Version: 6.00 Build 0)  -->
<!DOCTYPE svg PUBLIC "-//W3C//DTD SVG 1.1//EN" "http://www.w3.org/Graphics/SVG/1.1/DTD/svg11.dtd">
<svg version="1.1" id="Capa_1" xmlns="http://www.w3.org/2000/svg" xmlns:xlink="http://www.w3.org/1999/xlink" x="0px" y="0px"
	 viewBox="0 0 29.901 29.901" style="enable-background:new 0 0 29.901 29.901;" xml:space="preserve">
<g>
	<path d="M12.281,15.06c-0.01,1.323,0.31,1.953,0.833,1.953c0.524,0,0.808-0.657,0.808-1.97c0-1.279-0.274-1.954-0.816-1.954
		C12.61,13.089,12.271,13.72,12.281,15.06z"/>
	<path d="M28.282,3.613H1.62C0.725,3.613,0,4.338,0,5.232v19.436c0,0.895,0.725,1.62,1.62,1.62h20.667v-5.734
		c0-0.986,0.802-1.787,1.788-1.787h5.828V5.232C29.901,4.338,29.176,3.613,28.282,3.613z M21.454,18.034
		c-0.372,0-0.711-0.045-0.995-0.112c-0.167-0.04-0.311-0.144-0.4-0.289c-0.09-0.146-0.118-0.321-0.079-0.488l0.013-0.053
		c0.023-0.097,0.084-0.18,0.171-0.229c0.087-0.05,0.19-0.062,0.285-0.033c0.267,0.081,0.605,0.147,0.943,0.147
		c0.559,0,1.155-0.267,1.155-0.879c0-0.595-0.471-0.959-1.624-0.959c-0.015,0-0.03,0-0.045,0c-0.185,0.001-0.36-0.077-0.483-0.215
		c-0.122-0.138-0.179-0.323-0.156-0.506l0.183-1.451c0.058-0.458,0.448-0.802,0.909-0.802h1.816c0.307,0,0.555,0.248,0.555,0.555
		c0,0.307-0.248,0.555-0.555,0.555h-1.682l-0.125,0.888c0.125-0.018,0.231-0.018,0.374-0.018c0.55,0,1.11,0.124,1.518,0.417
		c0.435,0.293,0.702,0.772,0.702,1.448C23.93,17.084,23.007,18.034,21.454,18.034z M28.25,17.333c0,0.275-0.223,0.498-0.498,0.498
		c-0.275,0-0.499-0.223-0.499-0.498V6.793c0-0.087-0.071-0.159-0.159-0.159H2.807c-0.088,0-0.159,0.071-0.159,0.159v16.314
		c0,0.088,0.071,0.159,0.159,0.159h18.046c0.275,0,0.498,0.223,0.498,0.498c0,0.275-0.223,0.499-0.498,0.499H2.807
		c-0.637,0-1.156-0.519-1.156-1.156V6.793c0-0.638,0.519-1.156,1.156-1.156h24.288c0.637,0,1.156,0.518,1.156,1.156V17.333z
		 M17.331,13.462l-0.529,0.252c-0.138,0.065-0.299,0.065-0.436-0.002c-0.138-0.068-0.237-0.195-0.271-0.344
		c-0.05-0.231,0.065-0.465,0.278-0.563l0.978-0.455c0.121-0.057,0.253-0.086,0.387-0.086c0.505,0,0.916,0.411,0.916,0.917v4.202
		c0,0.36-0.292,0.653-0.653,0.653c-0.36,0-0.652-0.293-0.652-0.653v-3.919H17.331z M15.273,15.024c0,1.785-0.719,3.01-2.193,3.01
		c-1.492,0-2.149-1.34-2.158-2.974c0-1.669,0.71-2.992,2.201-2.992C14.669,12.069,15.273,13.445,15.273,15.024z M7.767,13.152
		c-0.276,0-0.533,0.077-0.759,0.185c-0.128,0.061-0.277,0.066-0.41,0.014c-0.133-0.052-0.238-0.157-0.29-0.29l-0.014-0.034
		c-0.089-0.225,0.007-0.48,0.221-0.593c0.411-0.215,0.938-0.366,1.527-0.366c1.305,0,2.024,0.764,2.024,1.813
		c0,0.967-0.702,1.74-1.536,2.485L7.998,16.81v0.018h1.621c0.307,0,0.555,0.248,0.555,0.555c0,0.307-0.249,0.555-0.555,0.555H6.646
		c-0.313,0-0.566-0.253-0.566-0.566c0-0.16,0.068-0.312,0.186-0.419l0.56-0.506c1.26-1.127,1.873-1.775,1.891-2.45
		C8.718,13.525,8.434,13.152,7.767,13.152z"/>
	<path d="M24.074,19.763c-0.437,0-0.791,0.354-0.791,0.791v4.796l5.587-5.587H24.074z"/>
	<path d="M28.282,26.288c0.895,0,1.62-0.725,1.62-1.62V20.14l-6.148,6.148H28.282z"/>
</g>
<g>
</g>
<g>
</g>
<g>
</g>
<g>
</g>
<g>
</g>
<g>
</g>
<g>
</g>
<g>
</g>
<g>
</g>
<g>
</g>
<g>
</g>
<g>
</g>
<g>
</g>
<g>
</g>
<g>
</g>
</svg>
